<svg xmlns="http://www.w3.org/2000/svg" viewBox="0 0 100 100" width="100" height="100">
  <rect width="100" height="100" rx="15" fill="#336791"/>
  <!-- Postgres Elephant Silhouette Outline in White/Light Blue -->
  <path d="M50 20c-15 0-25 8-25 22 0 10 5 18 12 21v12c0 2 2 3 4 2l6-6c1 0 2 1 3 1 12 0 20-8 20-20v-2c0-14-10-20-20-20zm12 22c0 1-.8 2-2 2s-2-.8-2-2 .8-2 2-2 2 .8 2 2z" fill="#FFF"/>
  <path d="M25 42c0 5 2 9 6 12l-4 6c-1 1-3 0-3-1v-8c-2-3-3-6-3-9 0-8 6-12 12-12l2 2c-6 0-10 4-10 10z" fill="#FFF" opacity="0.7"/>
</svg>
